<?xml version="1.0" encoding="utf-8"?>
<!-- Generator: Adobe Illustrator 19.0.0, SVG Export Plug-In . SVG Version: 6.00 Build 0)  -->
<svg version="1.1" id="图层_1" xmlns="http://www.w3.org/2000/svg" xmlns:xlink="http://www.w3.org/1999/xlink" x="0px" y="0px"
	 viewBox="0 0 800 200" style="enable-background:new 0 0 800 200;" xml:space="preserve">
<style type="text/css">
	.st0{fill:#7D9742;}
	.st1{fill:#95C745;}
	.st2{fill:#617731;}
	.st3{fill:#88BD3E;}
	.st4{fill:#77A131;}
	.st5{fill:#D7E8B2;}
	.st6{fill:#B3B994;}
	.st7{fill:#B6D676;}
	.st8{fill:#B35844;}
	.st9{fill:#EE7A4D;}
	.st10{fill:#B04938;}
	.st11{fill:#EC693E;}
	.st12{fill:#4F474E;}
	.st13{fill:#796D78;}
</style>
<g id="XMLID_27_">
	<path id="XMLID_38_" class="st0" d="M44.7,117.4l-11.2,16.8c-1.2,1.8-0.9,4.2,0.7,5.6c23.9,22.3,55.9,30.9,86.1,26
		c0.9-9,1.9-18,2.6-27C95.7,145,66.2,137.8,44.7,117.4z"/>
	<path id="XMLID_46_" class="st1" d="M173.9,134.1l-11.2-16.8c-2,1.9-4,3.6-6.1,5.3c-10.2,8-21.8,13.4-33.8,16.1
		c-0.7,9-1.7,18-2.6,27c19.3-3.1,37.8-11.8,53.1-26l0,0C174.8,138.3,175.1,135.9,173.9,134.1z"/>
	<path id="XMLID_47_" class="st2" d="M87.5,156.3l-2.5,9.1c3.6,0.7,7.2,1.1,10.9,1.4l-1.7-8.6L87.5,156.3z"/>
	<path id="XMLID_524_" class="st3" d="M173.3,139.8c-2.2,2.1-4.5,4-6.9,5.9c0.9-1.4,0.9-3.3-0.1-4.7l-11.4-17
		c0.6-0.4,1.1-0.9,1.7-1.3c2.1-1.6,4.1-3.4,6.1-5.3l11.2,16.8C175.1,135.9,174.8,138.3,173.3,139.8L173.3,139.8z"/>
	<path id="XMLID_525_" class="st4" d="M168.3,144.1c-2.7,2.2-5.5,4.2-8.3,6.1l-3.2-9.3c0,0-8.7-9.8-8.6-10l6.5-7.1L168.3,144.1z"/>
	<path id="XMLID_526_" class="st2" d="M63.8,130.8l-14.9,20.4c-2.5-1.6-5-3.3-7.3-5.1L53.4,123L63.8,130.8z"/>
	<path id="XMLID_527_" class="st4" d="M148.2,156.9c-2.9,1.4-5.8,2.6-8.8,3.8l-10.2-24.1l10.1-5.7L148.2,156.9z"/>
	<path id="XMLID_48_" class="st2" d="M118.9,138.8l-18.1,3.7l1.1,13.7l8.4,2.6l3.5,7.8c2.1-0.2,4.3-0.5,6.4-0.8
		c0.6-5.7,1.2-11.5,1.7-17.2L118.9,138.8z"/>
	<path id="XMLID_49_" class="st4" d="M121.9,148.6c-0.5,5.7-1.1,11.5-1.7,17.2c2.2-0.4,4.4-0.8,6.6-1.3L121.9,148.6z"/>
	<path id="XMLID_529_" class="st2" d="M85.8,139.1l-10.5,24c-5.2-1.5-10.3-3.4-15.3-5.8L80,137.4L85.8,139.1z"/>
	<path id="XMLID_50_" class="st5" d="M164.2,119.7l-6.9-10.4c-1.9,1.8-3.9,3.5-6,5.1c-8.5,6.5-17.9,11-27.8,13.6
		c-0.2,4.9-0.6,9.7-1,14.6c12.2-2.7,23.9-8.1,34.1-16.2C159.2,124.4,161.8,122.2,164.2,119.7z"/>
	<path id="XMLID_51_" class="st6" d="M50.1,109.4l-6.9,10.4c21.5,21.5,51.7,29.2,79.3,23c0.4-4.9,0.8-9.7,1-14.6
		C98.2,134.7,70.3,128.4,50.1,109.4z"/>
	<path id="XMLID_52_" class="st7" d="M164.2,119.7l-56.9-84.9c-1.7-2.6-5.5-2.6-7.2,0l-0.1,0.1c7.3,10.4,14.3,21,18,33.4
		c0.1,0.3,0.2,0.6,0.3,0.9l38.4,57.2C159.2,124.4,161.8,122.2,164.2,119.7z"/>
	<path id="XMLID_53_" class="st7" d="M100,34.9l-3.2,4.8c1.1,0.2,2.2,0.8,2.9,1.9l18.6,27.7c-0.1-0.3-0.2-0.6-0.3-0.9
		C114.2,55.9,107.2,45.4,100,34.9z"/>
	<path id="XMLID_54_" class="st8" d="M117.9,68.4c-3.7-12.5-10.7-23-18-33.4l-3.2,4.8l-48.4,72.1c20.3,20.3,48.9,27.1,74.8,20.4
		C124.6,111,124.1,89.6,117.9,68.4z"/>
	<path id="XMLID_55_" class="st9" d="M159,111.9l-51.7-77.1c-1.7-2.6-5.5-2.6-7.2,0l-0.1,0.1c7.3,10.4,14.3,21,18,33.4
		c6.2,21.2,6.6,42.6,5.3,63.9c10-2.6,19.5-7.1,28.1-13.7C153.9,116.6,156.5,114.3,159,111.9z"/>
	<path id="XMLID_56_" class="st10" d="M100,34.9l-3.2,4.8c1.1,0.2,2.2,0.8,2.9,1.9l18.6,27.7c-0.1-0.3-0.2-0.6-0.3-0.9
		C114.2,55.9,107.2,45.4,100,34.9z"/>
	<path id="XMLID_57_" class="st11" d="M159,111.9l-51.7-77.1c-1.7-2.6-5.5-2.6-7.2,0l-0.1,0.1c7.3,10.4,14.3,21,18,33.4
		c0.1,0.3,0.2,0.6,0.3,0.9l33.1,49.3C153.9,116.6,156.5,114.3,159,111.9z"/>
	<path id="XMLID_537_" class="st12" d="M92,87.1c0,1.4-0.5,2.6-1.4,3.7c-1.1,1.3-3.1,1.3-4.2,0c-0.9-1-1.4-2.3-1.4-3.7
		c0-1.4,0.5-2.6,1.4-3.7c1.1-1.3,3.1-1.3,4.2,0C91.5,84.5,92,85.7,92,87.1L92,87.1z"/>
	<path id="XMLID_58_" class="st12" d="M121,83.4c-1.1-1.3-3.1-1.3-4.2,0c-0.9,1-1.4,2.3-1.4,3.7c0,1.4,0.5,2.6,1.4,3.7
		c1.1,1.3,3.1,1.3,4.2,0c0.5-0.6,0.9-1.3,1.2-2.1c-0.2-1.5-0.4-3.1-0.7-4.6C121.4,83.9,121.2,83.6,121,83.4z"/>
	<path id="XMLID_59_" class="st13" d="M121.5,84.1c0.3,1.5,0.5,3.1,0.7,4.6c0.2-0.5,0.3-1,0.3-1.6C122.5,86,122.1,85,121.5,84.1z"/>
	<path id="XMLID_60_" class="st12" d="M101.5,63.2c-0.9,1-1.4,2.3-1.4,3.7c0,1.4,0.5,2.6,1.4,3.7c1.1,1.3,3.1,1.3,4.2,0
		c0.9-1,1.4-2.3,1.4-3.7c0-1.4-0.5-2.6-1.4-3.7C104.7,61.9,102.7,61.9,101.5,63.2z"/>
	<path id="XMLID_545_" class="st12" d="M76.8,107.4c0,1.4-0.5,2.6-1.4,3.7c-1.1,1.3-3.1,1.3-4.2,0c-0.9-1-1.4-2.3-1.4-3.7
		c0-1.4,0.5-2.6,1.4-3.7c1.1-1.3,3.1-1.3,4.2,0C76.2,104.8,76.8,106,76.8,107.4z"/>
	<path id="XMLID_61_" class="st12" d="M101.5,103.7c-0.9,1-1.4,2.3-1.4,3.7c0,1.4,0.5,2.6,1.4,3.7c1.1,1.3,3.1,1.3,4.2,0
		c0.9-1,1.4-2.3,1.4-3.7c0-1.4-0.5-2.6-1.4-3.7C104.7,102.5,102.7,102.5,101.5,103.7z"/>
	<path id="XMLID_550_" class="st13" d="M137.7,107.4c0,1.4-0.5,2.6-1.4,3.7c-1.1,1.3-3.1,1.3-4.2,0c-0.9-1-1.4-2.3-1.4-3.7
		c0-1.4,0.5-2.6,1.4-3.7c1.1-1.3,3.1-1.3,4.2,0C137.2,104.8,137.7,106,137.7,107.4L137.7,107.4z"/>
</g>
<g id="XMLID_2_">
	<path id="XMLID_35_" d="M231.7,74.4c0,3.8-0.9,7-2.7,9.7c-2.2,3.1-5,4.6-8.6,4.6c-3.8,0-6.8-1.5-9.1-4.4c-3.1,2.9-6.3,4.4-9.4,4.4
		c-4.3,0-7.5-1.9-9.7-5.7c-1.7-3.1-2.6-6.9-2.6-11.4c0-5.2,1.4-11.2,4.1-18c0.9-2.2,1.9-3.2,3.2-3.2c1.5,0,2.3,0.8,2.3,2.4
		c0,0.2-0.3,0.9-0.8,2.1c-2.8,5.6-4.1,11.1-4.1,16.8c0,3.1,0.5,5.7,1.5,8c1.3,3,3.3,4.5,5.9,4.5c1.6,0,3.1-0.4,4.6-1.3
		c1.8-0.9,2.7-2.1,2.8-3.6c0.1-1.7,0.9-2.6,2.3-2.6c1.4,0,2.2,0.7,2.4,2.2c0.3,1.5,1.1,2.8,2.3,3.9c1.3,1.1,2.7,1.6,4.3,1.6
		c2.5,0,4.3-1.1,5.5-3.5c0.9-1.8,1.4-4,1.4-6.7c0-3.4-0.5-6.6-1.6-9.7c-1.2-3.4-2.8-6.2-5-8.5c-0.9-1-1.4-1.8-1.4-2.2
		c0-1.4,0.7-2.2,2.1-2.2c1,0,2.2,0.9,3.6,2.5c2,2.3,3.6,5.6,4.9,9.7C231.1,67.6,231.7,71.2,231.7,74.4z"/>
	<path id="XMLID_37_" d="M270.6,86.4c0,1.6-0.7,2.4-2.1,2.4c-0.8,0-1.4-0.4-2-1.1c-0.6-0.7-1-2.7-1.4-5.9c-2,2.2-4.6,3.9-7.6,5.2
		c-3.1,1.2-6.2,1.9-9.3,1.9c-3.8,0-7-1.3-9.7-3.9c-2.6-2.6-3.9-5.8-3.9-9.6c0-5.3,1.9-9.4,5.7-12.5c3.5-2.8,8-4.1,13.4-4.1
		c3.1,0,5.8,0.6,8.3,1.9c2.9,1.4,4.3,2.9,4.2,4.4c0,1.3-0.7,2-1.9,2c-0.5,0-1.3-0.4-2.4-1.2c-2.6-1.7-5.4-2.6-8.2-2.6
		c-4.2,0-7.7,1-10.4,2.9c-2.9,2.2-4.4,5.4-4.4,9.4c0,2.7,1,4.9,2.9,6.5c1.8,1.5,4.1,2.2,6.9,2.3c3.8,0,7.3-1.2,10.5-3.9
		c3.2-2.6,5-5.7,5.5-9.5c0.3-2.2,1.1-3.3,2.4-3.3c1.5,0,2.3,0.8,2.3,2.3c0,0,0,0.4-0.1,1.2c-0.1,0.8-0.1,1.8-0.1,2.8
		c0,4.2,0.3,7.5,0.9,10C270.5,85.4,270.6,86.2,270.6,86.4z"/>
	<path id="XMLID_40_" d="M307.3,63.8c0,1.3-0.8,2-2.4,2c0.5,0-0.6-0.2-3.3-0.5c-2.9-0.3-7-0.6-12.3-0.7c-2,5.3-2.9,9.5-2.9,12.7
		c0,4.7,2.3,7,6.9,7c2.5,0,4.7-0.6,6.5-1.7c1.1-0.6,1.9-1,2.4-1c1.4,0,2.2,0.8,2.2,2.4c0,0.9-0.9,1.7-2.7,2.6c-2.9,1.4-5.7,2-8.6,2
		c-3.6,0-6.4-1.1-8.4-3.2c-1.9-2-2.8-4.8-2.8-8.4c0-3.2,0.9-7.3,2.7-12.5c-2.1,0-4.1,0.1-6.1,0.2c-1.5,0.1-2.3,0.2-2.5,0.2
		c-1.6-0.1-2.4-0.8-2.4-2c0-1.4,1.1-2.2,3.2-2.4c3.4-0.3,6.6-0.5,9.5-0.5c2-5.1,3.7-7.7,5.1-7.7c1.6,0,2.4,0.8,2.4,2.4
		c0,0.2-0.1,0.4-0.3,0.8c-0.4,0.6-0.7,1-0.9,1.3c-0.5,1.1-1,2.1-1.4,3.2c3.9,0.1,8.1,0.4,12.7,0.8C306.1,61.1,307.3,62.1,307.3,63.8
		z"/>
	<path id="XMLID_42_" d="M344.6,72.3c0,5.1-2.7,7.6-8,7.6c-1.2,0-8.4-1.3-21.6-3.9c0.3,2.7,2,4.8,5.2,6.3c2.5,1.2,5.2,1.8,8.3,1.9
		c2.2,0,3.2,0.8,3.2,2.3c0,1.5-1.3,2.2-3.9,2.2c-4.7,0-8.7-1.2-11.9-3.5c-3.7-2.6-5.5-6.1-5.5-10.6c0-4.9,1.7-8.8,5.1-11.8
		c3.2-2.8,7.3-4.2,12.3-4.2c4.5,0,8.3,1.2,11.6,3.5C342.8,64.6,344.6,68,344.6,72.3z M340.2,72.8c0-3-1.2-5.4-3.7-7.2
		c-2.2-1.6-4.9-2.4-8.1-2.4c-3.1,0-5.7,0.7-8,2.1c-2.6,1.5-4.2,3.7-5,6.5c13.2,2.5,20.1,3.7,20.9,3.7
		C338.8,75.6,340.2,74.7,340.2,72.8z"/>
	<path id="XMLID_45_" d="M367.4,58c0,1.3-1,2.2-2.9,2.5c-2.4,0.4-5.5,2.8-9.3,7.3c0.5,4.2,1.2,9.3,2,15.4c0.3,1.7,0.5,2.8,0.5,3.3
		c0,1.5-0.8,2.3-2.4,2.4c-1.5,0-2.4-1-2.7-3.1l-3.4-27.8c0-1.7,0.7-2.6,2.2-2.6s2.3,0.8,2.6,2.3c0.1,0.5,0.2,1.8,0.5,4.1
		c1.1-1.1,2.7-2.3,4.7-3.6c2.5-1.5,4.4-2.3,5.8-2.3C366.6,55.7,367.4,56.5,367.4,58z"/>
	<path id="XMLID_63_" d="M411.3,71.3c0,3.9-0.7,8.4-2,13.7c-0.7,2.6-1.7,3.9-3.1,3.9c-1.3,0-1.9-0.6-1.9-1.8c0-0.3,0.3-1.3,0.8-2.9
		c1.2-3.6,1.9-7.7,1.8-12.4c0-2.5-0.4-4.4-1.1-5.6c-0.9-1.5-2.5-2.3-4.8-2.3c-2.2,0-4,0.5-5.4,1.6c-0.6,0.5-1.5,1.4-2.5,2.8
		c-0.8,1.1-1.5,1.6-2.2,1.6c-1.4,0-2.1-0.8-2.3-2.4c-0.3-2.3-2-3.5-5.3-3.5c-2.8,0-5.2,1.2-7.2,3.7c-0.2,1.8-0.2,3.8-0.2,5.9
		c0,4.8,0.4,8.3,1.2,10.6c0.5,1.3,0.8,2,0.8,2.1c0,1.2-0.7,1.8-2.1,1.8c-1.1,0-2-1-2.7-2.9c-1.1-3.2-1.6-8-1.6-14.3
		c0-4.8,0.3-8.2,0.8-10.1c0.4-1.2,1.1-1.9,2-1.9c1.4,0,2.1,0.8,2.1,2.5c0,0.3,0,0.5,0,0.7c2.3-1.7,4.8-2.5,7.5-2.5
		c3.1,0,5.7,1.1,7.8,3.3c2.8-2.5,6.1-3.7,9.9-3.7c3.3,0,5.8,1.3,7.5,3.9C410.6,65,411.3,67.8,411.3,71.3z"/>
	<path id="XMLID_65_" d="M449.7,72.3c0,5.1-2.7,7.6-8,7.6c-1.2,0-8.4-1.3-21.6-3.9c0.3,2.7,2,4.8,5.2,6.3c2.5,1.2,5.2,1.8,8.3,1.9
		c2.2,0,3.2,0.8,3.2,2.3c0,1.5-1.3,2.2-3.9,2.2c-4.7,0-8.7-1.2-11.9-3.5c-3.7-2.6-5.5-6.1-5.5-10.6c0-4.9,1.7-8.8,5.1-11.8
		c3.2-2.8,7.3-4.2,12.3-4.2c4.5,0,8.3,1.2,11.6,3.5C447.9,64.6,449.7,68,449.7,72.3z M445.3,72.8c0-3-1.2-5.4-3.7-7.2
		c-2.2-1.6-4.9-2.4-8.1-2.4c-3.1,0-5.7,0.7-8,2.1c-2.6,1.5-4.2,3.7-5,6.5c13.2,2.5,20.1,3.7,20.8,3.7
		C443.9,75.6,445.3,74.7,445.3,72.8z"/>
	<path id="XMLID_68_" d="M462.4,88.8c-1.1,0-1.8-0.8-2.3-2.3c-0.5-1.5-0.7-5.1-0.7-10.7c0-2.8,0.2-9.4,0.6-19.9c0.1-2,0.8-3,2.2-3
		c1.3,0,1.9,1,1.9,3.1c0,0.6,0,1.5-0.1,2.7c-0.1,1.6-0.1,2.8-0.2,3.6c-0.1,3.9-0.2,7.4-0.2,10.5c0,4.9,0.1,8.3,0.2,10.1
		c0,0.8,0.1,1.6,0.3,2.4l0.2,1.1C464.4,88,463.7,88.8,462.4,88.8z"/>
	<path id="XMLID_70_" d="M510.2,73.5c0,4.7-1.8,8.5-5.3,11.3c-3.2,2.6-7.3,4-12.1,4c-5.2,0-9.4-1.2-12.8-3.5
		c-3.9-2.6-5.8-6.3-5.8-11.2c0-5.1,1.8-9,5.4-11.7c3.3-2.5,7.6-3.7,12.8-3.7c4.9,0,9,1.2,12.2,3.7C508.3,65,510.2,68.7,510.2,73.5z
		 M505.5,73.6c0-3.5-1.4-6.3-4.3-8.2c-2.5-1.6-5.6-2.4-9.3-2.4c-3.5,0-6.5,0.9-9,2.8c-2.6,2-3.9,4.7-3.9,8.2c0,3.5,1.4,6.2,4.2,8
		c2.4,1.5,5.4,2.3,9.1,2.3c3.7,0,6.7-0.8,9-2.5C504.2,79.8,505.5,77.1,505.5,73.6z"/>
	<path id="XMLID_73_" d="M550.2,74.7c0,3.1-0.6,6.8-1.8,11.3c-0.5,1.8-1.3,2.7-2.5,2.7c-1.5,0-2.3-0.8-2.3-2.3c0-0.4,0.2-1.1,0.6-2
		c0.9-2,1.3-5.2,1.2-9.3c-0.1-7.9-3.5-11.8-10.2-11.8c-5.5,0-10.8,2.1-16,6.2c0.5,6,1.1,10.7,1.9,14.2c0.3,1.5,0.5,2.4,0.5,2.5
		c0,1.5-0.7,2.3-2.1,2.3c-1.6,0-2.7-2.1-3.5-6.3c-1.3-7.4-2-13.8-2-19.2c0-2.9,0.8-4.4,2.3-4.4c1.5,0,2.2,1,2.3,2.9
		c0,0.6,0,1.5,0.1,2.7c2.9-2,5.5-3.4,7.8-4.2c2.6-0.9,5.5-1.4,8.7-1.4c4.9,0,8.6,1.5,11.2,4.5C549,65.9,550.2,69.8,550.2,74.7z"/>
	<path id="XMLID_75_" d="M593.2,81.1c0,1-0.8,2.1-2.5,3.4c-3.7,2.9-8.4,4.3-14,4.3c-5.8,0-10.8-1.5-15-4.5
		c-4.7-3.3-7.1-7.8-7.1-13.4c0-6.3,2.1-11.3,6.3-15.1c4.1-3.6,9.4-5.4,15.8-5.4c6.2,0,10.8,1.5,13.7,4.6c1.1,1.2,1.7,2.3,1.7,3.4
		c0,1.4-0.6,2.1-1.9,2.1c-0.7,0-1.5-0.5-2.2-1.6c-2.2-2.9-6.1-4.4-11.7-4.4c-4.8,0-8.9,1.6-12.2,4.7c-3.3,3.1-4.9,7.1-4.9,11.9
		c0,4.3,1.9,7.7,5.8,10.1c3.3,2,7.2,3.1,11.8,3.1c5.4,0,9.4-1.5,12.2-4.4c0.7-0.7,1.3-1.1,2-1.1C592.4,78.8,593.2,79.6,593.2,81.1z"
		/>
	<path id="XMLID_77_" d="M606.2,88.8c-1.1,0-1.8-0.8-2.3-2.3c-0.5-1.5-0.7-5.1-0.7-10.7c0-2.8,0.2-9.4,0.6-19.9c0.1-2,0.8-3,2.2-3
		c1.3,0,1.9,1,1.9,3.1c0,0.6,0,1.5-0.1,2.7c-0.1,1.6-0.1,2.8-0.2,3.6c-0.1,3.9-0.2,7.4-0.2,10.5c0,4.9,0.1,8.3,0.2,10.1
		c0,0.8,0.1,1.6,0.3,2.4l0.2,1.1C608.1,88,607.5,88.8,606.2,88.8z"/>
	<path id="XMLID_79_" d="M654,73.5c0,4.7-1.8,8.5-5.3,11.3c-3.2,2.6-7.3,4-12.1,4c-5.2,0-9.4-1.2-12.8-3.5
		c-3.9-2.6-5.8-6.3-5.8-11.2c0-5.1,1.8-9,5.4-11.7c3.3-2.5,7.6-3.7,12.8-3.7c4.9,0,9,1.2,12.2,3.7C652.1,65,654,68.7,654,73.5z
		 M649.3,73.6c0-3.5-1.4-6.3-4.3-8.2c-2.5-1.6-5.6-2.4-9.3-2.4c-3.5,0-6.5,0.9-9,2.8c-2.6,2-3.9,4.7-3.9,8.2c0,3.5,1.4,6.2,4.2,8
		c2.4,1.5,5.4,2.3,9.1,2.3c3.7,0,6.7-0.8,9-2.5C648,79.8,649.3,77.1,649.3,73.6z"/>
	<path id="XMLID_82_" d="M694.8,61.1c0,0.2-0.1,0.6-0.2,1.2c-0.2,0.7-0.2,1.3-0.3,1.8c-0.2,2.2-0.3,6.3-0.3,12.3
		c0,3.6,0.1,6,0.3,7.3c0.2,1.5,0.3,2.3,0.3,2.5c-0.1,1.7-0.8,2.6-2.3,2.6c-0.7,0-1.3-0.5-2-1.4c-0.6-0.9-0.9-3.3-0.9-7.4
		c-4.3,5.9-9.7,8.8-16,8.8c-4.8,0-8.5-1.2-11.2-3.7c-2.9-2.5-4.3-6.1-4.3-10.8c0-4.8,1.1-8.9,3.2-12.3c1.4-2.2,2.8-3.3,4.2-3.3
		c1.5,0,2.3,0.8,2.3,2.3c0,0.2-0.5,0.9-1.4,2.1c-2.5,3.4-3.8,7.1-3.8,11.2c0,3.1,0.9,5.6,2.8,7.3c1.9,1.7,4.4,2.6,7.6,2.6
		c5.2,0,9.2-2.7,12.2-8c2-3.5,3.5-8.5,4.7-14.9c0.3-1.8,1.1-2.7,2.5-2.7C694,58.7,694.8,59.5,694.8,61.1z"/>
	<path id="XMLID_84_" d="M733.6,86c0,1.8-0.8,2.7-2.3,2.7s-2.4-1.4-2.5-4.1c-0.3-7.6-0.4-13.1-0.4-16.5c-4.3-3.4-8.5-5.1-12.5-5.1
		c-3.6,0-6.6,1-8.8,3c-2.2,2.1-3.2,4.9-3.2,8.5c0,3,1,5.4,3,7.1c2,1.7,4.5,2.6,7.5,2.6s5.9-1.2,8.5-3.5c0.9-0.8,1.7-1.1,2.4-1.1
		c1.2,0,1.8,0.7,1.8,2c0,1.2-1.1,2.6-3.3,4.1c-2.8,2-5.9,2.9-9.2,2.9c-4.3,0-7.9-1.3-10.9-3.9c-3.1-2.7-4.6-6.1-4.6-10.4
		c0-4.7,1.6-8.6,4.9-11.6c3.2-2.8,7.2-4.2,12-4.2c4.2,0,8.3,1.2,12.3,3.6V56c0-2.4,0.7-3.6,2.1-3.6c1.7,0,2.6,1.2,2.7,3.5l0.2,24.7
		c0,1.4,0.1,2.7,0.2,3.9C733.5,85.6,733.6,86.1,733.6,86z"/>
</g>
<g id="XMLID_3_">
	<path id="XMLID_4_" d="M230.5,124c0.8,0,1.3,0.5,1.4,1.4c1.4-0.8,3.2-1.5,5.6-2.3c4-1.4,7.8-2,11.2-2h2.1c3.9,0,6.7,1,8.6,3.1
		c1.6,1.8,2.4,4.1,2.5,6.9v1.7c0,2.6-0.1,5.4-0.4,8.4c-0.3,3-0.9,7-1.9,12c-0.3,0.7-0.7,1.1-1.3,1.1c-0.9-0.1-1.3-0.5-1.3-1.5
		c0-0.4,0.1-1,0.2-1.7c0.6-3.7,1.1-7,1.4-9.9c0.3-3.2,0.4-6.1,0.4-8.5c0-3.3-0.6-5.5-1.9-6.8c-1.4-1.4-3.7-2.2-7-2.2
		c-2.7,0-5.5,0.4-8.2,1.1c-2.8,0.7-5.8,1.7-9.1,3.3c-0.3,0.2-0.6,0.3-0.9,0.4c0,0.5-0.1,1-0.1,1.5c-0.1,2.2-0.1,5.2-0.1,9
		c0.1,5.6,0.5,9.1,1.3,10.6c0.4,0.8,0.6,1.4,0.6,1.9c-0.1,1-0.5,1.5-1.3,1.5c-0.8,0-1.4-0.5-1.8-1.5c-1.1-1.9-1.7-6.1-1.8-12.5v-1.7
		c0-4,0.1-8,0.3-11.9C229.2,124.6,229.7,124.1,230.5,124z M236.1,129.4c1.1,0,3.9,0.1,8.4,0.4c5.3,0.2,8.3,0.4,9.2,0.5
		c1,0.3,1.6,0.9,1.6,1.6c-0.1,0.9-0.7,1.4-1.8,1.4c-2.2,0-8.1-0.3-17.7-0.8c-1.2-0.2-1.8-0.7-1.8-1.5
		C234,130,234.7,129.5,236.1,129.4z M245.8,136.7c2.7,0,5,0.5,6.9,1.5c1.8,1,2.7,2.6,2.7,4.8v1c0,1.9-0.9,3.4-2.7,4.5
		c-2,1.1-4.4,1.6-7.4,1.6h-2c-3.1,0-5.5-0.7-7.1-2.1c-1.1-1.1-1.7-2.7-1.7-4.8v-0.9c0-2,0.9-3.6,2.8-4.6c1.4-0.7,3.6-1.1,6.7-1.2
		H245.8z M244.7,147.5c3.2,0,5.3-0.4,6.1-1.1c1.1-0.5,1.6-1.4,1.6-2.6c0-1.5-0.5-2.5-1.5-3.1c-1.1-0.8-2.9-1.1-5.3-1.1
		c-3.5,0-5.7,0.3-6.6,0.8c-1,0.6-1.5,1.5-1.5,2.9c0,1.6,0.3,2.7,0.9,3.4C239.2,147.2,241.3,147.5,244.7,147.5z"/>
	<path id="XMLID_9_" d="M285.8,119.2c0.8,0,1.2,0.5,1.5,1.5c0.2,0.5,0.4,1.7,0.6,3.5c1.8-0.5,5.5-0.8,11.2-0.9c2,0,3.1,0.5,3.1,1.4
		c-0.1,0.9-0.5,1.4-1.5,1.5c-5.2,0-8.5,0.2-9.8,0.5c-1.2,0.2-2.2,0.4-2.8,0.5c0.2,2,0.3,3.4,0.3,4c0,0.4,0,0.6-0.1,0.8
		c4.3-0.2,9-0.4,14.2-0.5c1.7,0.1,2.6,0.5,2.6,1.5c-0.1,0.9-0.5,1.4-1.5,1.5c-6.4,0.1-11.8,0.3-16.2,0.6c0.2,0.9,0.5,2.3,0.7,4.2
		c0.4,3.1,0.6,5.1,0.6,6.1c-0.1,1.5-0.5,2.3-1.3,2.3c-1-0.1-1.5-0.6-1.6-1.6c-0.1-3.1-0.4-5.4-0.7-7c-0.1-1.6-0.3-2.7-0.4-3.1
		c-0.1-0.2-0.1-0.5-0.2-0.7c-1.6,0.1-3,0.3-4.2,0.4c-3.2,0.4-6.3,0.7-9.2,0.8c-1.1-0.1-1.7-0.6-1.8-1.6c0-0.7,0.7-1.1,2-1.3
		c1.2-0.2,2.5-0.4,3.9-0.6c0-0.1,0-0.2,0-0.2c-0.1-2.3-0.3-4.1-0.5-5.3c-0.1-1.2-0.2-2-0.3-2.3c-0.2-0.5-0.2-0.9-0.2-1.2
		c0-0.9,0.4-1.3,1.3-1.3c0.7,0,1.2,0.5,1.4,1.5c0.3,0.5,0.5,1.6,0.8,3.5c0.4,2.3,0.5,3.9,0.5,4.6c0,0.2,0,0.4,0,0.5
		c2.2-0.2,4.6-0.4,7.2-0.6c0-0.1,0-0.2,0-0.3c-0.1-3-0.2-5.3-0.4-6.9c-0.1-1.6-0.2-2.6-0.3-3c-0.1-0.7-0.2-1.2-0.2-1.5
		C284.6,119.6,285,119.2,285.8,119.2z M279.4,138.2c0.8,0.1,1.2,0.5,1.3,1.3c0,0.5-0.2,1-0.7,1.5c-2.4,2-4.9,4.2-7.4,6.5
		c-0.5,0.5-1,0.7-1.5,0.8c-0.8-0.1-1.3-0.5-1.3-1.3c0-0.5,0.2-1.1,0.5-1.6c2.6-2.5,5.1-4.7,7.7-6.5
		C278.4,138.4,278.8,138.2,279.4,138.2z M301.3,138.4c0.7,0.1,1.1,0.5,1.2,1.1c0,0.4-0.2,0.9-0.5,1.3c-5.5,4.6-11.3,9.5-17.3,14.8
		c-0.5,0.4-0.9,0.7-1.3,0.7c-0.7-0.1-1.1-0.5-1.1-1.2c0-0.5,0.2-1,0.5-1.5c5.8-5.7,11.5-10.6,17.3-14.8
		C300.5,138.5,300.9,138.4,301.3,138.4z"/>
	<path id="XMLID_13_" d="M312.4,129.6c0.8,0,1.6,0,2.3,0c0.5-1.7,1.1-3.5,1.7-5.4c0.2-1,0.8-1.6,1.7-1.6c0.9,0,1.4,0.5,1.5,1.5
		c0,0.4-0.2,1.1-0.5,2.1c-0.4,1.3-0.8,2.5-1.1,3.5c1.6,0,3.1,0.1,4.6,0.1c0.7-2,1.7-4.2,2.8-6.9c0.2-0.9,0.7-1.3,1.6-1.4
		c0.8,0.1,1.3,0.6,1.3,1.6c0,0.4-0.2,1-0.7,1.9c-0.7,1.9-1.3,3.5-1.9,4.9c4.9,0.2,9.4,0.5,13.7,0.9c-0.6-2-1.4-4.4-2.4-7
		c-0.3-0.7-0.4-1.3-0.4-1.8c0.1-0.8,0.5-1.2,1.1-1.3c0.9,0,1.6,0.5,2,1.5c1.5,3.7,2.6,6.7,3.1,8.9c0.6,0.1,1.2,0.1,1.8,0.2
		c1.2,0.4,1.8,1,1.8,1.6c-0.1,1-0.5,1.5-1.3,1.6c-0.5,0-1.1,0-1.8-0.1v1.6c0,3.1-0.8,5.6-2.4,7.4c-1.6,1.9-4.4,2.9-8.5,2.9h-1.8
		c-3.4,0-5.9-0.6-7.3-1.8c-1.7-1.6-2.6-4-2.6-7.2v-1c0-0.7,0.3-1.8,0.8-3.4c-1.4-0.1-2.9-0.1-4.4-0.1c-1.4,5-2,8.6-2,10.8
		c0,2.4,1,4.3,2.9,5.7c2,1.4,4.9,2.2,8.5,2.2c1.2,0,5.2-0.5,12-1.6c2.6-0.4,4-0.7,4.2-0.7c1,0,1.5,0.4,1.6,1.3
		c0,0.9-0.5,1.5-1.6,1.6c-8.5,1.4-13.6,2.1-15.5,2.1H326c-4.4,0-7.8-1-10.2-3c-2.4-2-3.7-4.3-3.7-7.1v-1.7c0-2.1,0.6-5.3,1.8-9.7
		c-0.5,0-1,0-1.5,0c-1.2-0.1-1.8-0.7-1.8-1.6C310.7,130.1,311.2,129.6,312.4,129.6z M324.7,133c-0.7,2.1-1.1,3.4-1.1,3.9
		c0,2.4,0.5,4.2,1.5,5.1c1.2,0.9,3.6,1.3,7.2,1.3c3.1,0,5.3-0.7,6.6-2.2c1-0.9,1.5-2.6,1.5-5.3c0-0.5-0.1-1.1-0.2-1.8
		c-0.7-0.1-1.4-0.1-2-0.2C334.7,133.5,330.2,133.2,324.7,133z"/>
	<path id="XMLID_16_" d="M359,122.6c0.6,0.1,0.9,0.3,1.1,0.6c0.7-0.4,1.5-0.7,2.5-1c1.7-0.4,3.7-0.7,6-0.7h2.2c5.6,0,9.7,1,12.4,3.1
		c2.7,2.2,4.1,4.9,4.1,8.1v1.9c0,2.4-0.7,4.5-2.2,6.3c-1,1.1-2.4,2-4.4,2.6c1.4,0.5,3.6,1.6,6.5,3.3c0.5,0.5,0.8,1,0.8,1.6
		c-0.1,0.8-0.5,1.2-1.3,1.3c-0.6,0-1.2-0.1-1.8-0.4c-1.8-0.8-3.7-1.8-5.7-2.9c0.2,0.2,0.3,0.5,0.3,0.9c0.4,2.4,0.7,4.7,1.1,7
		c0,0.3,0.1,0.5,0.1,0.7c-0.1,0.9-0.5,1.4-1.5,1.5c-1,0-1.5-0.5-1.8-1.5c-0.6-4.4-0.9-7-0.9-7.9c0-0.9,0.4-1.4,1.3-1.4
		c0.2,0,0.5,0,0.7,0.1c-0.3-0.4-0.4-0.8-0.5-1.2c0.1-0.2,0.1-0.3,0.1-0.4c-1.6,0.3-3.5,0.4-5.5,0.5h-4.3c-2.6,0-4.9-0.2-6.9-0.5v0.1
		c0,0.7-0.3,1.3-1,1.8l0,0c0.1,0,0.1,0,0.2,0c0.9,0,1.5,0.6,1.8,1.6c0.3,2,0.7,3.7,1.1,5.1c0.1,0.3,0.2,0.5,0.2,0.7
		c-0.1,0.9-0.5,1.5-1.5,1.5c-0.8,0-1.3-0.4-1.6-1c-0.4-1-0.7-2.3-0.9-3.7c-0.2-1.4-0.4-2.2-0.4-2.6c0-0.5,0.1-0.8,0.2-1
		c-1.4,1-2.9,2-4.5,3.1c-0.5,0.2-1,0.3-1.5,0.3c-0.9-0.1-1.4-0.5-1.4-1.5c0-0.6,0.3-1.1,0.8-1.5c1.4-1,2.8-2,4.2-3
		c0.4-0.3,0.8-0.6,1.2-0.8h0c-3.2-1.3-4.8-3.4-4.8-6.4v-1.5c0-3.7,1.3-7.6,3.9-11.6C357.7,123,358.2,122.7,359,122.6z M370.5,124.4
		H370c-0.1,1.1-0.3,2.9-0.7,5.2c1.8,0.2,3.4,0.4,4.9,0.6c0.8,0.2,1.3,0.6,1.3,1.3c-0.1,0.9-0.7,1.4-1.9,1.5c-1.7,0-3.3-0.1-4.8-0.1
		c-0.2,1.1-0.4,2.3-0.6,3.5c-0.4,0.6-0.9,1-1.5,1c-0.9-0.1-1.4-0.6-1.5-1.5c0-0.8,0.1-1.9,0.2-3.3c-3.1-0.2-5.8-0.4-8.2-0.7
		c-0.5,1.6-0.8,3-0.8,4.3c0,2.3,1,3.8,3.1,4.6c2,0.8,6.1,1.1,12.4,1.1c2.7-0.1,5.1-0.3,7.2-0.7c1.5-0.2,2.7-1,3.6-2.2
		c0.9-1.2,1.4-2.8,1.4-4.6c0-3.1-0.8-5.4-2.3-6.8C379.3,125.4,375.5,124.4,370.5,124.4z M366,129.3c0.2-1.4,0.5-3,0.8-4.7
		c-2.2,0.2-4,0.7-5.3,1.4c-0.9,0.5-1.4,0.7-1.7,0.7c-0.1,0-0.2,0-0.3,0c-0.4,0.8-0.8,1.6-1.1,2.4C361.1,129.1,363.7,129.2,366,129.3
		z"/>
	<path id="XMLID_20_" d="M440.6,122.7c1.7,0.1,2.5,0.5,2.6,1.5c0,0.9-0.5,1.4-1.5,1.5c-3.4,0-6.6,0.1-9.3,0.1
		c0.1,0.1,0.1,0.2,0.1,0.2c0,0.5-0.3,1-0.7,1.5c-2.8,2.6-5.7,5.2-8.5,8c0.2,0.1,0.3,0.2,0.4,0.4c1.9,2.7,3.3,5.2,4.2,7.5
		c0.9,2.2,1.3,4.7,1.3,7.3c0,1.7-0.4,2.8-1.2,3.6c-1.1,0.9-2.4,1.3-3.9,1.3c-0.9,0-1.7-0.1-2.2-0.4c-0.6-0.2-1-0.7-1-1.5
		c0.1-0.9,0.6-1.4,1.5-1.5c0.3,0,0.6,0.1,0.9,0.2c0.6,0.2,0.9,0.3,1.1,0.3c0.6,0,1.1-0.1,1.4-0.4c0.4-0.3,0.6-0.7,0.6-1.4
		c0-2-0.3-3.8-0.9-5.7c-0.6-1.8-2.1-4.2-4.3-7.3c-0.1-0.1-0.1-0.2-0.1-0.2c-3.3,3-6.6,6.2-10,9.5c-0.5,0.5-1,0.8-1.4,0.9
		c-0.8-0.1-1.2-0.6-1.3-1.3c0-0.5,0.1-1.1,0.4-1.6c6.8-7.3,13.7-13.7,20.5-19.1c-3.9,0.1-7.1,0.2-9.6,0.3c-3.1,0.1-6,0.2-8.9,0.2
		c-1.1-0.1-1.7-0.6-1.8-1.6c0-0.7,0.7-1.1,2-1.3C416.8,123,426.8,122.8,440.6,122.7z M429.6,136.9c0.5,0,1,0.1,1.5,0.3
		c4.1,2,7.7,3.4,10.7,4c1,0.2,1.6,0.6,1.6,1.3c-0.1,1.1-0.6,1.7-1.6,1.8c-1,0-2.3-0.3-3.9-0.8c-2.8-0.9-5.7-2.2-8.6-3.8
		c-0.6-0.4-0.9-0.9-1-1.8C428.4,137.4,428.9,137,429.6,136.9z"/>
	<path id="XMLID_23_" d="M454.6,122.9c0.4,0,0.7,0.2,0.9,0.4c2.3-1.3,5.7-2,10-2h1.6c5.2,0,9.1,0.9,11.7,2.7
		c2.8,2.1,4.3,4.4,4.3,7.1v1.6c0,2.8-0.9,5.1-2.7,6.8c-2.7,2.7-6.5,4.1-11.2,4.1h-3.5c-4.5,0-8-0.6-10.6-1.7
		c-2.9-1.3-4.3-3.6-4.3-6.8V134c0-3.6,0.7-6.9,2-10C453.2,123.3,453.8,122.9,454.6,122.9z M458.2,145.2c0.8,0,1.2,0.4,1.3,1.2
		c0,0.3-0.2,0.7-0.5,1.2c-1.6,2.6-2.8,4.7-3.5,6.2c-0.5,0.8-1.1,1.3-1.9,1.3c-0.8,0-1.2-0.5-1.2-1.3c0-0.4,0.2-0.9,0.6-1.6
		c1.6-3,2.8-5.1,3.7-6.3C457,145.4,457.6,145.2,458.2,145.2z M467,124c-3.3,0-6.2,0.5-9,1.4c-1,0.5-1.9,0.7-2.5,0.7h-0.2
		c0,0,0,0.1,0,0.1c-1,2.7-1.5,5.6-1.5,8.7c0,2.4,1,3.9,3,4.6c2.4,0.8,5.2,1.3,8.6,1.3h3.3c4.4,0,7.6-1,9.4-2.9
		c1.4-1.4,2.1-3.2,2.1-5.4c0-2.6-1-4.7-2.8-6.3C475.2,124.8,471.8,124,467,124z M477.2,145.7c0.8,0,3,1.9,6.5,5.7
		c0.5,0.5,0.8,1,0.9,1.6c-0.1,0.9-0.6,1.4-1.5,1.5c-0.4,0-0.9-0.2-1.4-0.7c-1.5-1.3-3.1-3-5-5c-0.6-0.5-0.9-1.1-0.9-1.8
		C475.8,146.2,476.3,145.8,477.2,145.7z"/>
	<path id="XMLID_29_" d="M493.3,123.8c1.5,0,4.6,0.1,9.5,0.4c1.5-1.7,2.8-3,4-4.1c0.5-0.5,1-0.7,1.6-0.7c0.8,0,1.2,0.4,1.3,1.1
		c0,0.8-0.7,1.8-2,3.1c-0.2,0.2-0.5,0.5-0.7,0.7c0.5,0,1,0.1,1.6,0.1c9.6,0.5,15.2,0.8,16.6,1c1,0.3,1.6,0.9,1.6,1.6
		c-0.1,0.9-0.7,1.4-1.8,1.5c-3,0-10-0.3-21-1c-2.1,2.3-3.9,4.4-5.5,6.2c0.4,0.1,0.7,0.3,0.8,0.6c2.3-0.8,4.9-1.4,7.8-2
		c2.7-0.7,4.9-1,6.4-1h1.1c3.4,0,6,0.8,7.7,2.5c1.7,1.7,2.5,4.1,2.5,7.2v2.4c0,4.1-0.5,7.5-1.3,10.3c-0.2,1-0.6,1.4-1.3,1.5
		c-1,0-1.5-0.5-1.6-1.5c0-0.3,0.1-0.7,0.2-1.1c0.7-3.5,1-6.9,1-10.3c0-3.2-0.8-5.4-2.3-6.7c-1.4-1-3.1-1.5-5.2-1.5
		c-1,0-2.4,0.2-4.2,0.5c-2.5,0.4-5.8,1.2-9.8,2.4c-0.6,0.2-1.1,0.3-1.6,0.3c-0.1,0.2-0.2,0.5-0.2,0.7c-0.1,0.4-0.1,0.8-0.2,1.1
		c5.1,0.1,9.5,0.3,13,0.6c0.8,0.2,1.3,0.7,1.3,1.3c-0.1,0.9-0.8,1.4-2,1.5c-5-0.1-9.3-0.3-12.7-0.6c-0.1,1-0.1,1.8-0.1,2.6
		c0,1.1,0,2,0.1,3c0,0,0.1,0,0.1,0c5.6-0.2,9.3-0.4,11.1-0.6c0.8-0.1,1.6-0.1,2.2-0.1c1,0,1.6,0.4,1.6,1c0,0.9-0.6,1.5-1.6,2
		c-5.2,0.4-9.4,0.6-12.7,0.6c-0.2,0-0.3,0-0.4,0c0.1,0.4,0.1,0.8,0.2,1.1c0.2,1.1,0.3,2,0.3,2.6c-0.1,0.8-0.5,1.3-1.3,1.3
		c-0.7,0-1.2-0.3-1.6-0.8c-0.5-2.7-0.7-6-0.8-10.1c0-3,0.3-5.5,0.8-7.6c-0.7,0.8-1.2,1.6-1.8,2.4c-0.5,0.8-1.1,1.2-2,1.3
		c-0.7-0.1-1.1-0.5-1.1-1.3c0-0.9,0.7-2.2,2.2-3.9c2.6-3.2,4.8-5.9,6.9-8.3c-2.3-0.1-4.6-0.2-7.1-0.4c-1.2-0.2-1.8-0.7-1.8-1.5
		C491.3,124.3,492,123.8,493.3,123.8z"/>
	<path id="XMLID_31_" d="M542.3,124.7c1,0.1,1.6,0.5,1.6,1.3c-0.1,0.7-0.5,1.2-1.3,1.6c-1.6,1.1-3,2-4.2,2.8
		c0.1,0.2,0.1,0.3,0.1,0.5c0.6,6,1.2,11.8,1.9,17.3c0.1,0.7,0.1,1.2,0.2,1.6c0,0.9-0.4,1.4-1.1,1.5c-1,0-1.6-0.5-1.8-1.3
		c-1-9-1.7-15-2-17.8c-1.2,0.7-2,1.1-2.2,1.1c-0.9,0-1.4-0.4-1.5-1.3c0.1-0.9,0.5-1.6,1.3-2C538.4,126.5,541.4,124.8,542.3,124.7z
		 M551.1,119.7c0.8,0.1,1.2,0.5,1.3,1.3c0,0.5-0.2,1-0.7,1.5c-0.8,1.4-1.5,2.9-2.3,4.4c0.7-0.3,1.4-0.5,2.3-0.8
		c2.5-0.8,5.1-1.2,7.8-1.3h1.3c2.6,0,4.6,0.4,6.2,1.1c1.6,0.9,2.4,1.9,2.4,3.1v0.7c0,0.8-0.2,1.7-0.6,2.7c-0.3,1-0.6,1.6-0.9,2
		c-0.5,0.5-1,0.8-1.5,0.8c-1.1,0-1.6-0.4-1.7-1.3c0-0.3,0.1-0.6,0.3-0.9c0.8-1.5,1.2-2.6,1.2-3.5c0-0.7-0.4-1.2-1.3-1.4
		c-1.1-0.3-2.7-0.4-4.7-0.4c-0.6,0-1.2,0-1.8,0.1c0.7,3.4,1.1,6.6,1.4,9.5c0.1,1.3,0.2,2.6,0.3,4c0.3-0.6,1-0.9,2-1
		c0.3,0,1.2,0.1,2.6,0.4c1.7,0.3,2.7,0.5,2.9,0.5c1,0.4,1.6,0.9,1.6,1.7c-0.1,0.9-0.7,1.4-1.8,1.5c-0.7,0-2.6-0.3-5.7-1
		c-0.8-0.1-1.3-0.4-1.6-0.8c0.1,1.5,0.2,3.2,0.2,4.9c0,2.8-0.4,4.9-1.1,6.1c-1,1.5-2.1,2.3-3.3,2.3c-0.9,0-1.6-0.2-2.1-0.5
		c-0.6-0.2-1-0.8-1-1.6c0.1-0.9,0.6-1.4,1.5-1.5c0.2,0,0.5,0.1,0.9,0.3c0.5,0.2,0.8,0.2,0.9,0.2c0.4,0,0.6-0.4,0.8-1.2
		c0.2-0.8,0.4-2.1,0.4-4c0-2.9-0.1-5.6-0.3-8.2s-0.7-6.2-1.5-10.7c-0.1-0.2-0.1-0.4-0.2-0.5c-1.6,0.3-3.3,0.8-5.1,1.4
		c-0.7,0.3-1.2,0.4-1.5,0.4c-0.4,0-0.6-0.1-0.9-0.2c-1.1,2.1-2.2,4.3-3.3,6.5c-0.5,0.5-1,0.8-1.4,0.9c-0.8-0.1-1.2-0.5-1.3-1.3
		c0-0.6,0.1-1.1,0.4-1.7c2.4-5.4,4.9-10,7.3-14C550.2,119.9,550.6,119.7,551.1,119.7z M549.3,136.1c0.9,0,1.5,0.4,1.5,1.3
		c0,0.5-0.2,1.2-0.5,2.1c-1.6,4.6-2.7,8.2-3.4,10.9c-0.5,0.8-1.2,1.3-2,1.3c-0.8,0-1.3-0.5-1.3-1.3c0-0.6,0.2-1.5,0.5-2.7
		c1.5-5.2,2.7-8.8,3.5-11C548.2,136.3,548.7,136.1,549.3,136.1z"/>
</g>
</svg>
